<?xml version="1.0" encoding="UTF-8"?>
<svg id="Layer_1" data-name="Layer 1" xmlns="http://www.w3.org/2000/svg" xmlns:xlink="http://www.w3.org/1999/xlink" width="38.000000pt" height="38.000000pt" viewBox="0 0 1600 1600">
  <defs>
    <style>
      .cls-1 {
        fill: #1b1464;
      }

      .cls-2 {
        fill: #2059a6;
      }

      .cls-3 {
        fill: url(#linear-gradient);
      }
    </style>
    <linearGradient id="linear-gradient" x1="491.69" y1="1224.3" x2="1109" y2="408.7" gradientUnits="userSpaceOnUse">
      <stop offset="0" stop-color="#1f8ad6"/>
      <stop offset="1" stop-color="#01feda"/>
    </linearGradient>
  </defs>
  <ellipse class="cls-1" cx="800" cy="800" rx="309.71" ry="863.71" transform="translate(-331.33 790.5) rotate(-44.52)"/>
  <circle class="cls-3" cx="801.42" cy="815.08" r="527.14"/>
  <circle class="cls-1" cx="801.42" cy="815.08" r="296.37"/>
  <path class="cls-2" d="M638.32,970.66c-74.1-104.43-125.9-197.92-150.95-243.44-45.86-83.31-82.18-159.48-110.63-224.49-14.93,20.26-31.21,45.37-46.35,75.43-16.02,31.79-26.87,61.38-34.34,86.51,69.6,107.19,165.95,235.57,296.45,365.93,127.23,127.09,252.39,221.59,357.53,290.39-145.2-132.02-245.6-257.17-311.7-350.32Z"/>
</svg>